# xmcd
#
# Track frame offsets:
#	150
#	19082
#	48136
#	70565
#	95558
#	119241
#	137811
#	166071
#	185770
#	219707
#	232899
#	258001
#	280033
#	290509
#	306049
#	324306
#
# Disc length: 4447 seconds
#
# Revision: 1
# Processed by: cddbd v1.5.2PL0 Copyright (c) Steve Scherf et al.
# Submitted via: audiograbber 1.83.01
#
DISCID=e1115d10
DTITLE=Howlin' Wolf - Backdoor Blues
DYEAR=1964
DGENRE=Blues
TTITLE0=Shake For Me
TTITLE1=Love Me Darlin'
TTITLE2=(I Believe) I'll Dust My Broom
TTITLE3=I Didn't Mean To Hurt Your Feelings
TTITLE4=Rockin' The Blues
TTITLE5=All My Life
TTITLE6=Going Down Slow
TTITLE7=Howlin' For My Baby
TTITLE8=Forty-Four
TTITLE9=Highway 49
TTITLE10=Little Red Rooster
TTITLE11=Wang Dang Doodle
TTITLE12=Built For Comfort
TTITLE13=Killing Floor
TTITLE14=Poor Boy
TTITLE15=Smile At Me
EXTD=
EXTT0=
EXTT1=
EXTT2=
EXTT3=
EXTT4=
EXTT5=
EXTT6=
EXTT7=
EXTT8=
EXTT9=
EXTT10=
EXTT11=
EXTT12=
EXTT13=
EXTT14=
EXTT15=
PLAYORDER=
